<mxfile host="app.diagrams.net" agent="Mozilla/5.0 (Macintosh; Intel Mac OS X 10_15_7) AppleWebKit/537.36 (KHTML, like Gecko) Chrome/131.0.0.0 Safari/537.36 Edg/131.0.0.0" version="24.9.3">
  <diagram name="Page-1" id="IsN-1GddzwqEPxPWCtXr">
    <mxGraphModel dx="1050" dy="605" grid="1" gridSize="10" guides="1" tooltips="1" connect="1" arrows="1" fold="1" page="1" pageScale="1" pageWidth="850" pageHeight="1100" math="0" shadow="0">
      <root>
        <mxCell id="0" />
        <mxCell id="1" parent="0" />
        <mxCell id="Q23NzQTboAZEcv5yFXKj-5" style="rounded=0;orthogonalLoop=1;jettySize=auto;html=1;exitX=1;exitY=0.5;exitDx=0;exitDy=0;entryX=0;entryY=0.5;entryDx=0;entryDy=0;endArrow=none;endFill=0;startArrow=ERmandOne;startFill=0;" edge="1" parent="1" source="Q23NzQTboAZEcv5yFXKj-1" target="Q23NzQTboAZEcv5yFXKj-4">
          <mxGeometry relative="1" as="geometry" />
        </mxCell>
        <mxCell id="Q23NzQTboAZEcv5yFXKj-15" style="edgeStyle=none;shape=connector;rounded=0;orthogonalLoop=1;jettySize=auto;html=1;exitX=0;exitY=0.25;exitDx=0;exitDy=0;entryX=0.5;entryY=1;entryDx=0;entryDy=0;strokeColor=default;align=center;verticalAlign=middle;fontFamily=Helvetica;fontSize=11;fontColor=default;labelBackgroundColor=default;endArrow=none;endFill=0;" edge="1" parent="1" source="Q23NzQTboAZEcv5yFXKj-1" target="Q23NzQTboAZEcv5yFXKj-14">
          <mxGeometry relative="1" as="geometry" />
        </mxCell>
        <mxCell id="Q23NzQTboAZEcv5yFXKj-17" style="edgeStyle=none;shape=connector;rounded=0;orthogonalLoop=1;jettySize=auto;html=1;exitX=0;exitY=0.5;exitDx=0;exitDy=0;entryX=0.5;entryY=1;entryDx=0;entryDy=0;strokeColor=default;align=center;verticalAlign=middle;fontFamily=Helvetica;fontSize=11;fontColor=default;labelBackgroundColor=default;endArrow=none;endFill=0;" edge="1" parent="1" source="Q23NzQTboAZEcv5yFXKj-1" target="Q23NzQTboAZEcv5yFXKj-16">
          <mxGeometry relative="1" as="geometry" />
        </mxCell>
        <mxCell id="Q23NzQTboAZEcv5yFXKj-19" style="edgeStyle=none;shape=connector;rounded=0;orthogonalLoop=1;jettySize=auto;html=1;exitX=0.75;exitY=0;exitDx=0;exitDy=0;strokeColor=default;align=center;verticalAlign=middle;fontFamily=Helvetica;fontSize=11;fontColor=default;labelBackgroundColor=default;endArrow=none;endFill=0;" edge="1" parent="1" source="Q23NzQTboAZEcv5yFXKj-1" target="Q23NzQTboAZEcv5yFXKj-18">
          <mxGeometry relative="1" as="geometry" />
        </mxCell>
        <mxCell id="Q23NzQTboAZEcv5yFXKj-21" style="edgeStyle=none;shape=connector;rounded=0;orthogonalLoop=1;jettySize=auto;html=1;exitX=0.75;exitY=0;exitDx=0;exitDy=0;strokeColor=default;align=center;verticalAlign=middle;fontFamily=Helvetica;fontSize=11;fontColor=default;labelBackgroundColor=default;endArrow=none;endFill=0;" edge="1" parent="1" source="Q23NzQTboAZEcv5yFXKj-1" target="Q23NzQTboAZEcv5yFXKj-20">
          <mxGeometry relative="1" as="geometry" />
        </mxCell>
        <mxCell id="Q23NzQTboAZEcv5yFXKj-1" value="Customer" style="rounded=0;whiteSpace=wrap;html=1;" vertex="1" parent="1">
          <mxGeometry x="223" y="120" width="80" height="40" as="geometry" />
        </mxCell>
        <mxCell id="Q23NzQTboAZEcv5yFXKj-9" style="edgeStyle=none;shape=connector;rounded=0;orthogonalLoop=1;jettySize=auto;html=1;exitX=0.5;exitY=1;exitDx=0;exitDy=0;entryX=0.5;entryY=0;entryDx=0;entryDy=0;strokeColor=default;align=center;verticalAlign=middle;fontFamily=Helvetica;fontSize=11;fontColor=default;labelBackgroundColor=default;endArrow=none;endFill=0;startArrow=ERoneToMany;startFill=0;" edge="1" parent="1" source="Q23NzQTboAZEcv5yFXKj-3" target="Q23NzQTboAZEcv5yFXKj-8">
          <mxGeometry relative="1" as="geometry">
            <Array as="points">
              <mxPoint x="540" y="170" />
            </Array>
          </mxGeometry>
        </mxCell>
        <mxCell id="Q23NzQTboAZEcv5yFXKj-26" style="edgeStyle=none;shape=connector;rounded=0;orthogonalLoop=1;jettySize=auto;html=1;exitX=0.5;exitY=0;exitDx=0;exitDy=0;strokeColor=default;align=center;verticalAlign=middle;fontFamily=Helvetica;fontSize=11;fontColor=default;labelBackgroundColor=default;endArrow=none;endFill=0;entryX=0.28;entryY=0.875;entryDx=0;entryDy=0;entryPerimeter=0;" edge="1" parent="1" source="Q23NzQTboAZEcv5yFXKj-3" target="Q23NzQTboAZEcv5yFXKj-27">
          <mxGeometry relative="1" as="geometry">
            <mxPoint x="640" y="56" as="targetPoint" />
            <mxPoint x="560" y="76" as="sourcePoint" />
          </mxGeometry>
        </mxCell>
        <mxCell id="Q23NzQTboAZEcv5yFXKj-3" value="Car" style="rounded=0;whiteSpace=wrap;html=1;" vertex="1" parent="1">
          <mxGeometry x="500" y="120" width="80" height="40" as="geometry" />
        </mxCell>
        <mxCell id="Q23NzQTboAZEcv5yFXKj-6" style="edgeStyle=none;shape=connector;rounded=0;orthogonalLoop=1;jettySize=auto;html=1;exitX=1;exitY=0.5;exitDx=0;exitDy=0;entryX=0;entryY=0.5;entryDx=0;entryDy=0;strokeColor=default;align=center;verticalAlign=middle;fontFamily=Helvetica;fontSize=11;fontColor=default;labelBackgroundColor=default;endArrow=ERoneToMany;endFill=0;strokeWidth=1;" edge="1" parent="1" source="Q23NzQTboAZEcv5yFXKj-4" target="Q23NzQTboAZEcv5yFXKj-3">
          <mxGeometry relative="1" as="geometry" />
        </mxCell>
        <mxCell id="Q23NzQTboAZEcv5yFXKj-4" value="owns" style="shape=rhombus;perimeter=rhombusPerimeter;whiteSpace=wrap;html=1;align=center;" vertex="1" parent="1">
          <mxGeometry x="383" y="120" width="80" height="40" as="geometry" />
        </mxCell>
        <mxCell id="Q23NzQTboAZEcv5yFXKj-7" value="Accident" style="rounded=0;whiteSpace=wrap;html=1;" vertex="1" parent="1">
          <mxGeometry x="500" y="260" width="80" height="40" as="geometry" />
        </mxCell>
        <mxCell id="Q23NzQTboAZEcv5yFXKj-10" style="edgeStyle=none;shape=connector;rounded=0;orthogonalLoop=1;jettySize=auto;html=1;exitX=0.5;exitY=1;exitDx=0;exitDy=0;entryX=0.5;entryY=0;entryDx=0;entryDy=0;strokeColor=default;align=center;verticalAlign=middle;fontFamily=Helvetica;fontSize=11;fontColor=default;labelBackgroundColor=default;endArrow=ERzeroToMany;endFill=0;" edge="1" parent="1" source="Q23NzQTboAZEcv5yFXKj-8" target="Q23NzQTboAZEcv5yFXKj-7">
          <mxGeometry relative="1" as="geometry">
            <Array as="points">
              <mxPoint x="540" y="250" />
            </Array>
          </mxGeometry>
        </mxCell>
        <mxCell id="Q23NzQTboAZEcv5yFXKj-8" value="has" style="shape=rhombus;perimeter=rhombusPerimeter;whiteSpace=wrap;html=1;align=center;" vertex="1" parent="1">
          <mxGeometry x="500" y="190" width="80" height="40" as="geometry" />
        </mxCell>
        <mxCell id="Q23NzQTboAZEcv5yFXKj-32" style="edgeStyle=none;shape=connector;rounded=0;orthogonalLoop=1;jettySize=auto;html=1;exitX=0.25;exitY=1;exitDx=0;exitDy=0;entryX=0.5;entryY=0;entryDx=0;entryDy=0;strokeColor=default;align=center;verticalAlign=middle;fontFamily=Helvetica;fontSize=11;fontColor=default;labelBackgroundColor=default;endArrow=none;endFill=0;" edge="1" parent="1" source="Q23NzQTboAZEcv5yFXKj-11" target="Q23NzQTboAZEcv5yFXKj-31">
          <mxGeometry relative="1" as="geometry" />
        </mxCell>
        <mxCell id="Q23NzQTboAZEcv5yFXKj-36" style="edgeStyle=none;shape=connector;rounded=0;orthogonalLoop=1;jettySize=auto;html=1;exitX=0.5;exitY=1;exitDx=0;exitDy=0;entryX=0.5;entryY=0;entryDx=0;entryDy=0;strokeColor=default;align=center;verticalAlign=middle;fontFamily=Helvetica;fontSize=11;fontColor=default;labelBackgroundColor=default;endArrow=none;endFill=0;" edge="1" parent="1" source="Q23NzQTboAZEcv5yFXKj-11" target="Q23NzQTboAZEcv5yFXKj-35">
          <mxGeometry relative="1" as="geometry" />
        </mxCell>
        <mxCell id="Q23NzQTboAZEcv5yFXKj-40" style="edgeStyle=none;shape=connector;rounded=0;orthogonalLoop=1;jettySize=auto;html=1;exitX=0.5;exitY=0;exitDx=0;exitDy=0;entryX=0.5;entryY=1;entryDx=0;entryDy=0;strokeColor=default;align=center;verticalAlign=middle;fontFamily=Helvetica;fontSize=11;fontColor=default;labelBackgroundColor=default;endArrow=none;endFill=0;startArrow=ERmandOne;startFill=0;" edge="1" parent="1" source="Q23NzQTboAZEcv5yFXKj-11" target="Q23NzQTboAZEcv5yFXKj-39">
          <mxGeometry relative="1" as="geometry" />
        </mxCell>
        <mxCell id="Q23NzQTboAZEcv5yFXKj-11" value="InsurancePolicy" style="rounded=0;whiteSpace=wrap;html=1;" vertex="1" parent="1">
          <mxGeometry x="700" y="190" width="110" height="40" as="geometry" />
        </mxCell>
        <mxCell id="Q23NzQTboAZEcv5yFXKj-14" value="ID" style="ellipse;whiteSpace=wrap;html=1;align=center;fontFamily=Helvetica;fontSize=11;fontColor=default;labelBackgroundColor=default;fontStyle=4" vertex="1" parent="1">
          <mxGeometry x="73" y="76" width="60" height="24" as="geometry" />
        </mxCell>
        <mxCell id="Q23NzQTboAZEcv5yFXKj-16" value="fullname" style="ellipse;whiteSpace=wrap;html=1;align=center;fontFamily=Helvetica;fontSize=11;fontColor=default;labelBackgroundColor=default;" vertex="1" parent="1">
          <mxGeometry x="143" y="76" width="60" height="24" as="geometry" />
        </mxCell>
        <mxCell id="Q23NzQTboAZEcv5yFXKj-18" value="email" style="ellipse;whiteSpace=wrap;html=1;align=center;fontFamily=Helvetica;fontSize=11;fontColor=default;labelBackgroundColor=default;" vertex="1" parent="1">
          <mxGeometry x="213" y="76" width="60" height="24" as="geometry" />
        </mxCell>
        <mxCell id="Q23NzQTboAZEcv5yFXKj-20" value="phone" style="ellipse;whiteSpace=wrap;html=1;align=center;fontFamily=Helvetica;fontSize=11;fontColor=default;labelBackgroundColor=default;" vertex="1" parent="1">
          <mxGeometry x="283" y="76" width="60" height="24" as="geometry" />
        </mxCell>
        <mxCell id="Q23NzQTboAZEcv5yFXKj-37" style="edgeStyle=none;shape=connector;rounded=0;orthogonalLoop=1;jettySize=auto;html=1;exitX=0.5;exitY=1;exitDx=0;exitDy=0;strokeColor=default;align=center;verticalAlign=middle;fontFamily=Helvetica;fontSize=11;fontColor=default;labelBackgroundColor=default;endArrow=none;endFill=0;" edge="1" parent="1" source="Q23NzQTboAZEcv5yFXKj-22" target="Q23NzQTboAZEcv5yFXKj-3">
          <mxGeometry relative="1" as="geometry" />
        </mxCell>
        <mxCell id="Q23NzQTboAZEcv5yFXKj-22" value="&lt;u&gt;ID&lt;/u&gt;" style="ellipse;whiteSpace=wrap;html=1;align=center;fontFamily=Helvetica;fontSize=11;fontColor=default;labelBackgroundColor=default;" vertex="1" parent="1">
          <mxGeometry x="480" y="32" width="60" height="24" as="geometry" />
        </mxCell>
        <mxCell id="Q23NzQTboAZEcv5yFXKj-24" value="make" style="ellipse;whiteSpace=wrap;html=1;align=center;fontFamily=Helvetica;fontSize=11;fontColor=default;labelBackgroundColor=default;" vertex="1" parent="1">
          <mxGeometry x="550" y="32" width="60" height="24" as="geometry" />
        </mxCell>
        <mxCell id="Q23NzQTboAZEcv5yFXKj-25" style="edgeStyle=none;shape=connector;rounded=0;orthogonalLoop=1;jettySize=auto;html=1;strokeColor=default;align=center;verticalAlign=middle;fontFamily=Helvetica;fontSize=11;fontColor=default;labelBackgroundColor=default;endArrow=none;endFill=0;entryX=0.5;entryY=1;entryDx=0;entryDy=0;exitX=0.397;exitY=0.025;exitDx=0;exitDy=0;exitPerimeter=0;" edge="1" parent="1" source="Q23NzQTboAZEcv5yFXKj-3" target="Q23NzQTboAZEcv5yFXKj-24">
          <mxGeometry relative="1" as="geometry">
            <mxPoint x="550" y="70" as="sourcePoint" />
            <mxPoint x="560" y="66" as="targetPoint" />
          </mxGeometry>
        </mxCell>
        <mxCell id="Q23NzQTboAZEcv5yFXKj-27" value="model" style="ellipse;whiteSpace=wrap;html=1;align=center;fontFamily=Helvetica;fontSize=11;fontColor=default;labelBackgroundColor=default;" vertex="1" parent="1">
          <mxGeometry x="610" y="36" width="60" height="24" as="geometry" />
        </mxCell>
        <mxCell id="Q23NzQTboAZEcv5yFXKj-38" style="edgeStyle=none;shape=connector;rounded=0;orthogonalLoop=1;jettySize=auto;html=1;exitX=0;exitY=0.5;exitDx=0;exitDy=0;entryX=0.5;entryY=0;entryDx=0;entryDy=0;strokeColor=default;align=center;verticalAlign=middle;fontFamily=Helvetica;fontSize=11;fontColor=default;labelBackgroundColor=default;endArrow=none;endFill=0;" edge="1" parent="1" source="Q23NzQTboAZEcv5yFXKj-28" target="Q23NzQTboAZEcv5yFXKj-3">
          <mxGeometry relative="1" as="geometry" />
        </mxCell>
        <mxCell id="Q23NzQTboAZEcv5yFXKj-28" value="year" style="ellipse;whiteSpace=wrap;html=1;align=center;fontFamily=Helvetica;fontSize=11;fontColor=default;labelBackgroundColor=default;" vertex="1" parent="1">
          <mxGeometry x="630" y="76" width="60" height="24" as="geometry" />
        </mxCell>
        <mxCell id="Q23NzQTboAZEcv5yFXKj-31" value="&lt;u&gt;ID&lt;/u&gt;" style="ellipse;whiteSpace=wrap;html=1;align=center;fontFamily=Helvetica;fontSize=11;fontColor=default;labelBackgroundColor=default;" vertex="1" parent="1">
          <mxGeometry x="630" y="260" width="60" height="24" as="geometry" />
        </mxCell>
        <mxCell id="Q23NzQTboAZEcv5yFXKj-33" value="name" style="ellipse;whiteSpace=wrap;html=1;align=center;fontFamily=Helvetica;fontSize=11;fontColor=default;labelBackgroundColor=default;" vertex="1" parent="1">
          <mxGeometry x="700" y="260" width="60" height="24" as="geometry" />
        </mxCell>
        <mxCell id="Q23NzQTboAZEcv5yFXKj-34" style="edgeStyle=none;shape=connector;rounded=0;orthogonalLoop=1;jettySize=auto;html=1;exitX=0.5;exitY=1;exitDx=0;exitDy=0;entryX=0.38;entryY=0.125;entryDx=0;entryDy=0;entryPerimeter=0;strokeColor=default;align=center;verticalAlign=middle;fontFamily=Helvetica;fontSize=11;fontColor=default;labelBackgroundColor=default;endArrow=none;endFill=0;" edge="1" parent="1" source="Q23NzQTboAZEcv5yFXKj-11" target="Q23NzQTboAZEcv5yFXKj-33">
          <mxGeometry relative="1" as="geometry" />
        </mxCell>
        <mxCell id="Q23NzQTboAZEcv5yFXKj-35" value="description" style="ellipse;whiteSpace=wrap;html=1;align=center;fontFamily=Helvetica;fontSize=11;fontColor=default;labelBackgroundColor=default;" vertex="1" parent="1">
          <mxGeometry x="770" y="260" width="60" height="24" as="geometry" />
        </mxCell>
        <mxCell id="Q23NzQTboAZEcv5yFXKj-41" style="edgeStyle=none;shape=connector;rounded=0;orthogonalLoop=1;jettySize=auto;html=1;exitX=0;exitY=0.5;exitDx=0;exitDy=0;entryX=1;entryY=0.5;entryDx=0;entryDy=0;strokeColor=default;align=center;verticalAlign=middle;fontFamily=Helvetica;fontSize=11;fontColor=default;labelBackgroundColor=default;endArrow=ERoneToMany;endFill=0;" edge="1" parent="1" source="Q23NzQTboAZEcv5yFXKj-39" target="Q23NzQTboAZEcv5yFXKj-3">
          <mxGeometry relative="1" as="geometry" />
        </mxCell>
        <mxCell id="Q23NzQTboAZEcv5yFXKj-39" value="covers" style="shape=rhombus;perimeter=rhombusPerimeter;whiteSpace=wrap;html=1;align=center;" vertex="1" parent="1">
          <mxGeometry x="715" y="120" width="80" height="40" as="geometry" />
        </mxCell>
      </root>
    </mxGraphModel>
  </diagram>
</mxfile>
